<mxfile host="app.diagrams.net" modified="2021-09-23T03:54:50.910Z" agent="5.0 (Macintosh; Intel Mac OS X 10_15_7) AppleWebKit/537.36 (KHTML, like Gecko) Chrome/93.0.4577.82 Safari/537.36" etag="W3VXy1nU4iw8dvmrc0_q" version="15.2.9" type="github">
  <diagram id="x5PDwKKHrCKikiH-rsKp" name="Page-1">
    <mxGraphModel dx="2253" dy="769" grid="1" gridSize="10" guides="1" tooltips="1" connect="1" arrows="1" fold="1" page="1" pageScale="1" pageWidth="827" pageHeight="1169" math="0" shadow="0">
      <root>
        <mxCell id="0" />
        <mxCell id="1" parent="0" />
        <mxCell id="5cufBf7cnaiTUng5m8nz-54" style="edgeStyle=orthogonalEdgeStyle;rounded=0;orthogonalLoop=1;jettySize=auto;html=1;exitX=0.5;exitY=1;exitDx=0;exitDy=0;fillColor=#00994D;" parent="1" edge="1">
          <mxGeometry relative="1" as="geometry">
            <mxPoint x="-330" y="120" as="sourcePoint" />
            <mxPoint x="-80" y="350" as="targetPoint" />
            <Array as="points">
              <mxPoint x="-330" y="290" />
              <mxPoint x="-70" y="290" />
              <mxPoint x="-70" y="350" />
            </Array>
          </mxGeometry>
        </mxCell>
        <mxCell id="5cufBf7cnaiTUng5m8nz-55" value="创建广告" style="edgeLabel;html=1;align=center;verticalAlign=middle;resizable=0;points=[];" parent="5cufBf7cnaiTUng5m8nz-54" vertex="1" connectable="0">
          <mxGeometry x="-0.54" y="2" relative="1" as="geometry">
            <mxPoint x="-2" y="15" as="offset" />
          </mxGeometry>
        </mxCell>
        <mxCell id="5cufBf7cnaiTUng5m8nz-1" value="star-api" style="rounded=0;whiteSpace=wrap;html=1;fillColor=#99FFCC;" parent="1" vertex="1">
          <mxGeometry x="-390" y="110" width="120" height="60" as="geometry" />
        </mxCell>
        <mxCell id="5cufBf7cnaiTUng5m8nz-6" style="edgeStyle=orthogonalEdgeStyle;rounded=0;orthogonalLoop=1;jettySize=auto;html=1;exitX=0.5;exitY=1;exitDx=0;exitDy=0;entryX=0.5;entryY=0;entryDx=0;entryDy=0;" parent="1" source="5cufBf7cnaiTUng5m8nz-2" target="5cufBf7cnaiTUng5m8nz-4" edge="1">
          <mxGeometry relative="1" as="geometry">
            <mxPoint x="-70" y="350" as="targetPoint" />
            <Array as="points">
              <mxPoint x="200" y="290" />
              <mxPoint x="-70" y="290" />
            </Array>
          </mxGeometry>
        </mxCell>
        <mxCell id="5cufBf7cnaiTUng5m8nz-57" value="创建广告" style="edgeLabel;html=1;align=center;verticalAlign=middle;resizable=0;points=[];" parent="5cufBf7cnaiTUng5m8nz-6" vertex="1" connectable="0">
          <mxGeometry x="-0.6943" y="-1" relative="1" as="geometry">
            <mxPoint x="1" y="22" as="offset" />
          </mxGeometry>
        </mxCell>
        <mxCell id="5cufBf7cnaiTUng5m8nz-2" value="trinity-api" style="rounded=0;whiteSpace=wrap;html=1;fillColor=#99FFCC;" parent="1" vertex="1">
          <mxGeometry x="140" y="110" width="120" height="60" as="geometry" />
        </mxCell>
        <mxCell id="5cufBf7cnaiTUng5m8nz-52" style="edgeStyle=orthogonalEdgeStyle;rounded=0;orthogonalLoop=1;jettySize=auto;html=1;exitX=0.5;exitY=1;exitDx=0;exitDy=0;entryX=0.5;entryY=0;entryDx=0;entryDy=0;fillColor=#00994D;" parent="1" source="5cufBf7cnaiTUng5m8nz-3" target="5cufBf7cnaiTUng5m8nz-4" edge="1">
          <mxGeometry relative="1" as="geometry">
            <mxPoint x="-140" y="200" as="targetPoint" />
          </mxGeometry>
        </mxCell>
        <mxCell id="5cufBf7cnaiTUng5m8nz-56" value="创建广告" style="edgeLabel;html=1;align=center;verticalAlign=middle;resizable=0;points=[];" parent="5cufBf7cnaiTUng5m8nz-52" vertex="1" connectable="0">
          <mxGeometry x="-0.44" y="-4" relative="1" as="geometry">
            <mxPoint x="4" y="33" as="offset" />
          </mxGeometry>
        </mxCell>
        <mxCell id="5cufBf7cnaiTUng5m8nz-3" value="athena-api/&lt;br&gt;hancock-api" style="rounded=0;whiteSpace=wrap;html=1;fillColor=#99FFCC;" parent="1" vertex="1">
          <mxGeometry x="-130" y="110" width="120" height="60" as="geometry" />
        </mxCell>
        <mxCell id="5cufBf7cnaiTUng5m8nz-9" style="edgeStyle=orthogonalEdgeStyle;rounded=0;orthogonalLoop=1;jettySize=auto;html=1;exitX=0.5;exitY=1;exitDx=0;exitDy=0;entryX=0.5;entryY=0;entryDx=0;entryDy=0;fillColor=#00994D;" parent="1" source="5cufBf7cnaiTUng5m8nz-4" target="5cufBf7cnaiTUng5m8nz-8" edge="1">
          <mxGeometry relative="1" as="geometry" />
        </mxCell>
        <mxCell id="5cufBf7cnaiTUng5m8nz-4" value="hydra-api" style="rounded=0;whiteSpace=wrap;html=1;fillColor=#00994D;" parent="1" vertex="1">
          <mxGeometry x="-130" y="350" width="120" height="60" as="geometry" />
        </mxCell>
        <mxCell id="5cufBf7cnaiTUng5m8nz-8" value="ad_biz_db" style="shape=dataStorage;whiteSpace=wrap;html=1;fixedSize=1;fillColor=#00994D;" parent="1" vertex="1">
          <mxGeometry x="-150" y="480" width="160" height="90" as="geometry" />
        </mxCell>
        <mxCell id="5cufBf7cnaiTUng5m8nz-12" style="edgeStyle=orthogonalEdgeStyle;rounded=0;orthogonalLoop=1;jettySize=auto;html=1;fillColor=#00994D;" parent="1" source="5cufBf7cnaiTUng5m8nz-11" target="5cufBf7cnaiTUng5m8nz-8" edge="1">
          <mxGeometry relative="1" as="geometry" />
        </mxCell>
        <mxCell id="5cufBf7cnaiTUng5m8nz-14" value="监听dts消息" style="edgeLabel;html=1;align=center;verticalAlign=middle;resizable=0;points=[];fillColor=#00994D;" parent="5cufBf7cnaiTUng5m8nz-12" vertex="1" connectable="0">
          <mxGeometry x="0.1333" relative="1" as="geometry">
            <mxPoint as="offset" />
          </mxGeometry>
        </mxCell>
        <mxCell id="5cufBf7cnaiTUng5m8nz-37" style="edgeStyle=orthogonalEdgeStyle;rounded=0;orthogonalLoop=1;jettySize=auto;html=1;exitX=0.5;exitY=1;exitDx=0;exitDy=0;entryX=0.5;entryY=0;entryDx=0;entryDy=0;" parent="1" source="5cufBf7cnaiTUng5m8nz-11" target="5cufBf7cnaiTUng5m8nz-19" edge="1">
          <mxGeometry relative="1" as="geometry" />
        </mxCell>
        <mxCell id="5cufBf7cnaiTUng5m8nz-38" value="送审消息" style="edgeLabel;html=1;align=center;verticalAlign=middle;resizable=0;points=[];fillColor=#00994D;" parent="5cufBf7cnaiTUng5m8nz-37" vertex="1" connectable="0">
          <mxGeometry x="0.0378" y="3" relative="1" as="geometry">
            <mxPoint as="offset" />
          </mxGeometry>
        </mxCell>
        <mxCell id="5cufBf7cnaiTUng5m8nz-11" value="sherry" style="rounded=0;whiteSpace=wrap;html=1;fillColor=#00994D;" parent="1" vertex="1">
          <mxGeometry x="130" y="495" width="120" height="60" as="geometry" />
        </mxCell>
        <mxCell id="5cufBf7cnaiTUng5m8nz-15" value="明星店铺" style="text;html=1;strokeColor=none;fillColor=none;align=center;verticalAlign=middle;whiteSpace=wrap;rounded=0;" parent="1" vertex="1">
          <mxGeometry x="-360" y="80" width="60" height="20" as="geometry" />
        </mxCell>
        <mxCell id="5cufBf7cnaiTUng5m8nz-16" value="直播广告" style="text;html=1;strokeColor=none;fillColor=none;align=center;verticalAlign=middle;whiteSpace=wrap;rounded=0;" parent="1" vertex="1">
          <mxGeometry x="170" y="80" width="60" height="20" as="geometry" />
        </mxCell>
        <mxCell id="5cufBf7cnaiTUng5m8nz-18" value="店铺广告" style="text;html=1;strokeColor=none;fillColor=none;align=center;verticalAlign=middle;whiteSpace=wrap;rounded=0;" parent="1" vertex="1">
          <mxGeometry x="-100" y="80" width="60" height="20" as="geometry" />
        </mxCell>
        <mxCell id="5cufBf7cnaiTUng5m8nz-39" style="edgeStyle=orthogonalEdgeStyle;rounded=0;orthogonalLoop=1;jettySize=auto;html=1;entryX=1;entryY=0.5;entryDx=0;entryDy=0;fillColor=#FFCCCC;" parent="1" source="5cufBf7cnaiTUng5m8nz-19" target="5cufBf7cnaiTUng5m8nz-25" edge="1">
          <mxGeometry relative="1" as="geometry" />
        </mxCell>
        <mxCell id="5cufBf7cnaiTUng5m8nz-19" value="ad-audit-access" style="ellipse;whiteSpace=wrap;html=1;aspect=fixed;fillColor=#FFCCCC;" parent="1" vertex="1">
          <mxGeometry x="150" y="640" width="80" height="80" as="geometry" />
        </mxCell>
        <mxCell id="5cufBf7cnaiTUng5m8nz-32" value="" style="edgeStyle=orthogonalEdgeStyle;rounded=0;orthogonalLoop=1;jettySize=auto;html=1;" parent="1" source="5cufBf7cnaiTUng5m8nz-22" target="5cufBf7cnaiTUng5m8nz-31" edge="1">
          <mxGeometry relative="1" as="geometry" />
        </mxCell>
        <mxCell id="5cufBf7cnaiTUng5m8nz-35" value="审核结果" style="edgeLabel;html=1;align=center;verticalAlign=middle;resizable=0;points=[];fillColor=#00994D;" parent="5cufBf7cnaiTUng5m8nz-32" vertex="1" connectable="0">
          <mxGeometry x="-0.18" y="-1" relative="1" as="geometry">
            <mxPoint as="offset" />
          </mxGeometry>
        </mxCell>
        <mxCell id="5cufBf7cnaiTUng5m8nz-22" value="ad-audit-result" style="ellipse;whiteSpace=wrap;html=1;aspect=fixed;fillColor=#FFCCCC;" parent="1" vertex="1">
          <mxGeometry x="-380" y="640" width="80" height="80" as="geometry" />
        </mxCell>
        <mxCell id="5cufBf7cnaiTUng5m8nz-40" style="edgeStyle=orthogonalEdgeStyle;rounded=0;orthogonalLoop=1;jettySize=auto;html=1;exitX=0;exitY=0.5;exitDx=0;exitDy=0;entryX=1;entryY=0.5;entryDx=0;entryDy=0;fillColor=#FFCCCC;" parent="1" source="5cufBf7cnaiTUng5m8nz-25" target="5cufBf7cnaiTUng5m8nz-22" edge="1">
          <mxGeometry relative="1" as="geometry" />
        </mxCell>
        <mxCell id="5cufBf7cnaiTUng5m8nz-25" value="audit" style="rounded=0;whiteSpace=wrap;html=1;fillColor=#FFCCCC;" parent="1" vertex="1">
          <mxGeometry x="-140" y="650" width="120" height="60" as="geometry" />
        </mxCell>
        <mxCell id="5cufBf7cnaiTUng5m8nz-36" value="修改审核状态" style="edgeStyle=orthogonalEdgeStyle;rounded=0;orthogonalLoop=1;jettySize=auto;html=1;exitX=1;exitY=0.5;exitDx=0;exitDy=0;entryX=0;entryY=0.5;entryDx=0;entryDy=0;fillColor=#00994D;" parent="1" source="5cufBf7cnaiTUng5m8nz-31" target="5cufBf7cnaiTUng5m8nz-8" edge="1">
          <mxGeometry relative="1" as="geometry" />
        </mxCell>
        <mxCell id="5cufBf7cnaiTUng5m8nz-31" value="sherry" style="rounded=0;whiteSpace=wrap;html=1;fillColor=#00994D;" parent="1" vertex="1">
          <mxGeometry x="-400" y="495" width="120" height="60" as="geometry" />
        </mxCell>
        <mxCell id="5cufBf7cnaiTUng5m8nz-41" value="&lt;font style=&quot;font-size: 24px&quot;&gt;业务层&lt;/font&gt;" style="text;html=1;strokeColor=none;fillColor=none;align=center;verticalAlign=middle;whiteSpace=wrap;rounded=0;" parent="1" vertex="1">
          <mxGeometry x="-660" y="230" width="110" height="20" as="geometry" />
        </mxCell>
        <mxCell id="5cufBf7cnaiTUng5m8nz-42" value="&lt;font style=&quot;font-size: 24px&quot;&gt;基础投放&lt;/font&gt;" style="text;html=1;strokeColor=none;fillColor=none;align=center;verticalAlign=middle;whiteSpace=wrap;rounded=0;" parent="1" vertex="1">
          <mxGeometry x="-670" y="430" width="160" height="20" as="geometry" />
        </mxCell>
        <mxCell id="5cufBf7cnaiTUng5m8nz-43" value="&lt;font style=&quot;font-size: 24px&quot;&gt;审核&lt;/font&gt;" style="text;html=1;strokeColor=none;fillColor=none;align=center;verticalAlign=middle;whiteSpace=wrap;rounded=0;" parent="1" vertex="1">
          <mxGeometry x="-690" y="670" width="160" height="20" as="geometry" />
        </mxCell>
      </root>
    </mxGraphModel>
  </diagram>
</mxfile>
